<?xml version="1.0" standalone="no"?><!DOCTYPE svg PUBLIC "-//W3C//DTD SVG 1.1//EN" "http://www.w3.org/Graphics/SVG/1.1/DTD/svg11.dtd"><svg t="1745524915923" class="icon" viewBox="0 0 1024 1024" version="1.1" xmlns="http://www.w3.org/2000/svg" p-id="19752" xmlns:xlink="http://www.w3.org/1999/xlink" width="200" height="200"><path d="M905.8 375.796c0.17-13.902-11.503-25.61-25.342-25.709h-1.19V158.525c14.054-10.885 25.458-25.493 26.46-43.808 0.045-0.663 0.081-1.334 0.072-2.014a25.512 25.512 0 0 0-0.125-2.757c-2.346-36.594-41.875-55.338-71.737-67.056-48.401-18.986-101.34-26.854-152.65-33.183-68.255-8.405-137.289-10.831-206-9.256-65.499 1.495-131.256 6.946-195.752 18.736-23.945 4.377-47.774 9.846-70.976 17.24-18.646 5.953-37.596 13.123-54.237 23.525-15.137 9.443-27.168 21.322-33.622 38.106-6.606 17.17 0.654 34.91 11.252 48.338a68.166 68.166 0 0 0 11.055 10.966v192.752c-13.257 0.483-24.813 11.771-24.643 25.315 0.233 19.219 10.554 33.675 24.643 44.82v186.755c-13.257 0.492-24.813 11.771-24.643 25.315 0.233 19.218 10.554 33.675 24.643 44.829v208.82c-13.257 0.483-24.813 11.771-24.643 25.315 0.474 38.42 41.248 57.8 71.853 69.821 48.401 18.995 101.35 26.855 152.65 33.192 68.255 8.406 137.289 10.823 206 9.256 65.508-1.495 131.256-6.955 195.752-18.735 38.034-6.956 76.266-16.355 111.284-33.12 23.83-11.414 49.538-31.027 49.896-59.976 0.17-13.901-11.503-25.61-25.342-25.7h-1.19V678.617c14.743-11.35 26.29-26.515 26.532-45.877 0.17-13.901-11.503-25.61-25.342-25.7h-1.19V421.664c14.743-11.341 26.29-26.514 26.532-45.867zM169.54 173.34c19.837 9.489 40.873 16.381 62.097 21.976 57.513 15.218 117.452 22.083 176.657 26.219a1501.236 1501.236 0 0 0 211.255-0.287c58.892-4.198 118.429-11.368 175.584-26.621 19.398-5.165 39.306-11.36 57.647-20.186v202.805c-0.179 0.179-0.358 0.385-0.537 0.564-1.002 1.011-2.059 1.96-3.133 2.891-0.08 0.08-0.17 0.144-0.25 0.215a126.297 126.297 0 0 1-18.798 10.876c-1.853 0.895-3.733 1.79-5.622 2.596-0.465 0.215-0.895 0.412-1.414 0.618a294.694 294.694 0 0 1-13.526 5.04c-22.316 7.742-45.402 13.212-68.542 17.786-13.749 2.685-27.579 5.022-41.445 7.072q-5.272 0.778-10.572 1.486l-3.052 0.411-2.775 0.358a1231.843 1231.843 0 0 1-24.169 2.74c-69.383 7.16-139.428 8.683-209.107 5.926q-49.707-1.979-99.2-7.564a1082.729 1082.729 0 0 1-20.812-2.614l-1.513-0.206-5.237-0.77q-6.006-0.895-11.995-1.853-20.105-3.231-40.03-7.492c-16.113-3.447-32.163-7.52-47.9-12.532q-10.357-3.268-20.481-7.233l-1.11-0.448c-0.976-0.42-1.96-0.841-2.927-1.27q-4.163-1.863-8.209-3.94a127.451 127.451 0 0 1-13.23-7.716c-0.483-0.331-0.949-0.671-1.423-1.011a60.1 60.1 0 0 1-4.476-4.073c-0.394-0.403-0.761-0.824-1.137-1.236-0.206-0.322-0.403-0.653-0.6-0.975z m684.914-61.165a0.188 0.188 0 0 0 0 0.053c-1.62-3.598-0.671-1.87 0-0.053zM202.007 92.75c1.674-0.725 4.369-1.79 0 0z m-31.106 18.279c0.985-1.441 2.686-3.455-0.197 0.286z m-0.895 1.352l0.09-0.108a53.27 53.27 0 0 1 5.37-5.12 96.899 96.899 0 0 1 4.736-3.169 154.109 154.109 0 0 1 21.018-10.876l1.325-0.528c2.148-0.895 4.323-1.674 6.49-2.47a301.147 301.147 0 0 1 15.217-5.157c23.462-7.42 47.586-12.684 71.782-17.052 14.125-2.57 28.448-4.727 42.77-6.642h0.439l5.478-0.672q5.559-0.671 11.118-1.289c8.253-0.895 16.515-1.727 24.786-2.488 34.222-3.106 68.569-4.79 102.942-5.434C551.85 50.06 620.41 52.978 688.19 61.697c1.79 0.224 3.581 0.466 5.371 0.707l0.654 0.09q5.183 0.725 10.348 1.513 10.93 1.665 21.823 3.58 19.39 3.42 38.572 7.887c11.297 2.64 22.522 5.639 33.604 9.067 4.771 1.468 9.507 3.062 14.215 4.727 2.211 0.788 4.413 1.62 6.606 2.452l3.178 1.245 0.143 0.062a171.25 171.25 0 0 1 17.653 8.764 110.034 110.034 0 0 1 7.304 4.601c0.206 0.134 0.439 0.304 0.68 0.474l1.46 1.245a53.163 53.163 0 0 1 4.287 4.234l0.126 0.197h-1.46v1.593c-0.178 0.188-0.357 0.394-0.537 0.573-1.002 1.011-2.058 1.96-3.133 2.891l-0.25 0.215a126.297 126.297 0 0 1-18.798 10.876c-1.853 0.895-3.733 1.79-5.622 2.596-0.465 0.215-0.895 0.412-1.414 0.618a294.695 294.695 0 0 1-13.526 5.04c-22.316 7.742-45.402 13.203-68.541 17.786-13.75 2.685-27.58 5.013-41.446 7.063q-5.272 0.778-10.571 1.495l-3.053 0.411-2.775 0.35a1108.665 1108.665 0 0 1-24.169 2.739c-69.383 7.16-139.428 8.692-209.107 5.926q-49.707-1.96-99.2-7.556a1082.737 1082.737 0 0 1-20.812-2.613c-0.618-0.09-1.2-0.161-1.513-0.215-1.79-0.242-3.491-0.501-5.237-0.761q-6.006-0.895-11.995-1.862-20.105-3.223-40.03-7.483c-22.084-4.718-44.042-10.51-65.176-18.494-1.361-0.51-2.686-1.056-4.046-1.594a141.347 141.347 0 0 1-3.196-1.37 205.725 205.725 0 0 1-11.637-5.71 122.286 122.286 0 0 1-9.148-5.478c-0.52-0.332-1.02-0.69-1.522-1.039a43.647 43.647 0 0 1-1.996-1.611 52.286 52.286 0 0 1-4.35-4.333 0.671 0.671 0 0 0-0.063-0.107z m-0.466 2.005v-0.26c0.296 2.175 0.135 1.522 0 0.26z m20.67 330.847c48.4 18.995 101.348 26.854 152.65 33.192 68.254 8.405 137.288 10.822 206 9.255 65.507-1.503 131.255-6.955 195.75-18.744 36.899-6.74 73.976-15.808 108.126-31.661v196.86l-0.537 0.574c-1.003 1.011-2.06 1.96-3.133 2.89l-0.251 0.216a126.216 126.216 0 0 1-18.798 10.867c-1.853 0.895-3.733 1.79-5.622 2.605l-1.414 0.617a294.58 294.58 0 0 1-13.526 5.031c-22.316 7.743-45.402 13.213-68.541 17.787-13.75 2.73-27.58 5.022-41.446 7.071q-5.272 0.78-10.571 1.495l-3.053 0.403-2.775 0.358a1108.659 1108.659 0 0 1-24.169 2.74c-69.383 7.16-139.428 8.691-209.106 5.925-33.121-1.316-66.241-3.777-99.2-7.564q-10.42-1.2-20.813-2.605l-1.513-0.214-5.236-0.761q-6.007-0.896-11.995-1.862-20.105-3.24-40.031-7.484c-16.113-3.455-32.163-7.528-47.9-12.532q-10.357-3.276-20.48-7.242l-1.11-0.447c-0.977-0.42-1.961-0.833-2.928-1.271a181.619 181.619 0 0 1-8.209-3.93 127.532 127.532 0 0 1-13.23-7.725c-0.483-0.322-0.949-0.671-1.423-1.003a60.217 60.217 0 0 1-4.476-4.082c-0.394-0.393-0.76-0.814-1.137-1.226-0.206-0.322-0.402-0.653-0.6-0.985V436.335c7.054 3.383 14.117 6.32 20.696 8.898z m658.829 471.331l-0.25 0.206a126.297 126.297 0 0 1-18.8 10.876c-1.852 0.895-3.732 1.79-5.62 2.605l-1.415 0.609a294.694 294.694 0 0 1-13.526 5.04c-22.316 7.742-45.402 13.212-68.541 17.786-13.75 2.685-27.58 5.022-41.446 7.072q-5.272 0.778-10.571 1.494l-3.053 0.403-2.775 0.358a1231.836 1231.836 0 0 1-24.169 2.74c-69.383 7.16-139.428 8.691-209.106 5.925-33.12-1.316-66.241-3.777-99.2-7.564a1082.728 1082.728 0 0 1-20.813-2.614l-1.513-0.205-5.236-0.761q-6.007-0.895-11.995-1.862-20.105-3.232-40.031-7.484c-16.113-3.455-32.163-7.528-47.9-12.532q-10.357-3.276-20.48-7.241l-1.11-0.448c-0.976-0.42-1.961-0.841-2.928-1.271q-4.162-1.871-8.208-3.939a127.451 127.451 0 0 1-13.23-7.716c-0.484-0.331-0.95-0.671-1.424-1.003a60.217 60.217 0 0 1-4.476-4.081c-0.394-0.403-0.76-0.815-1.137-1.227s-0.537-0.895-0.778-1.28a26.264 26.264 0 0 0-0.895-5.263h1.038V693.233c7.027 3.384 14.09 6.266 20.678 8.898 48.4 18.986 101.349 26.855 152.65 33.183 68.255 8.406 137.288 10.832 206 9.256 65.507-1.495 131.256-6.946 195.751-18.735 36.898-6.75 73.975-15.818 108.125-31.67V913.1l-0.537 0.573a27.943 27.943 0 0 1-3.08 2.891z" fill="#707070" p-id="19753"></path><path d="M421.23 692.07v-0.063c-0.636-1.817-1.576-3.536 0 0.063zM292.255 945.02c4.52 0.735 8.298 1.317 11.879 1.845l5.192 0.76 1.468 0.207 2.47 0.322V738.6c-15.11-1.907-31.867-4.19-48.866-7.072v208.489a789.118 789.118 0 0 0 27.857 5.004z m0-278.954c4.52 0.725 8.298 1.307 11.879 1.79 1.728 0.26 3.455 0.52 5.192 0.76l1.468 0.207 2.47 0.322V481.71c-15.11-1.916-31.867-4.198-48.866-7.072v186.415a810.485 810.485 0 0 0 27.857 5.013z m0-256.899c4.53 0.734 8.298 1.316 11.879 1.844 1.728 0.25 3.455 0.51 5.192 0.752l1.405 0.206 2.533 0.331V218.894c-17.213-2.14-33.344-4.565-48.866-7.358v192.627a810.212 810.212 0 0 0 27.857 5.004z m465.55-299.248c0 11.896-34.016 21.546-75.972 21.546s-75.98-9.65-75.98-21.546 34.015-21.546 75.98-21.546 75.971 9.64 75.971 21.546z" fill="#707070" p-id="19754"></path></svg>