<?xml version="1.0" standalone="no"?><!DOCTYPE svg PUBLIC "-//W3C//DTD SVG 1.1//EN" "http://www.w3.org/Graphics/SVG/1.1/DTD/svg11.dtd"><svg t="1745525093109" class="icon" viewBox="0 0 1029 1024" version="1.1" xmlns="http://www.w3.org/2000/svg" p-id="26080" xmlns:xlink="http://www.w3.org/1999/xlink" width="200.9765625" height="200"><path d="M318.050638 517.541674h-147.459475a49.461029 49.461029 0 0 0-48.824056 57.295809 395.242352 395.242352 0 0 0 151.28132 252.018753 49.620273 49.620273 0 0 0 73.060915-15.064434c28.440888-50.41649 55.32119-97.807354 73.188309-129.178323a193.894878 193.894878 0 0 1-101.247013-165.071805zM512.10476 317.754786a193.321602 193.321602 0 0 1 91.501311 22.931063l80.545359-121.534634a49.365483 49.365483 0 0 0 6.019404-41.84919 49.301786 49.301786 0 0 0-28.472736-31.243574 392.885548 392.885548 0 0 0-149.593338-29.332652 394.605378 394.605378 0 0 0-140.548308 25.670052 49.397332 49.397332 0 0 0-24.71459 71.850664c31.402817 52.040774 59.079336 98.030295 75.640659 125.547571a192.907568 192.907568 0 0 1 89.622239-22.0393zM704.980479 489.73776a194.022273 194.022273 0 0 1-89.685935 186.72892l69.430163 122.13976c7.994023 14.077125 22.421484 23.345096 38.600623 24.810137 16.115442 1.46504 30.383659-6.560832 42.326921-17.580482 85.195269-78.475194 126.120847-178.830444 133.254955-254.184465 1.273948-13.280907-0.414033-26.657361-8.535451-37.231129a45.543639 45.543639 0 0 0-33.887016-17.548633c-60.44883-2.675291-116.725481-5.414279-151.50426-7.134108zM512.10476 375.464628a136.185036 136.185036 0 0 0-85.768546 30.288113 136.439826 136.439826 0 0 0-50.830523 106.247259c0 1.879073 0.127395 3.694449 0.191092 5.541674a136.630918 136.630918 0 0 0 172.365158 126.248242 136.630918 136.630918 0 0 0 100.610039-131.789916 136.630918 136.630918 0 0 0-136.56722-136.535372z" fill="" p-id="26081"></path><path d="M1024.008895 503.655641c-2.993778-181.028004-100.196006-339.379734-244.661704-428.142058A508.496325 508.496325 0 0 0 512.10476 0.000318c-92.424924 0-179.212628 24.619044-254.152617 67.678485C103.995533 156.058942 0.073229 322.118058 0.073229 512c0 1.879073 0.127395 3.694449 0.127395 5.541674 1.974619 189.945639 107.967089 355.304084 263.547983 442.059939a508.814812 508.814812 0 0 0 248.324304 64.398069c94.940971 0 183.958084-25.988538 260.235718-71.24554 150.580648-89.240054 251.795813-253.356399 251.795812-440.722293 0.031849-2.834534-0.095546-5.63722-0.095546-8.376208zM734.217585 885.712631a431.772809 431.772809 0 0 1-222.144674 61.149502 431.868355 431.868355 0 0 1-210.997629-54.747913c-131.949159-73.474948-221.794338-213.577374-223.768958-374.572546l-0.031849-5.541674c0-162.014331 88.985264-303.613645 220.743331-378.426239a432.282388 432.282388 0 0 1 214.086954-56.404045c82.201492 0 159.052402 22.931063 224.660721 62.614541 122.935977 74.462258 206.188476 208.0357 210.074017 360.973152 0.127395 3.694449 0.127395 7.484444 0.127395 11.27444-0.031849 158.670217-85.41821 297.721636-212.749308 373.680782z" fill="" p-id="26082"></path></svg>